<svg xmlns="http://www.w3.org/2000/svg" viewBox="0 0 512 512" style="enable-background:new 0 0 512 512" xml:space="preserve"><circle style="fill:#fff082" cx="350.063" cy="337.236" r="153.921"/><circle style="fill:#ff507d" cx="161.937" cy="337.236" r="153.921"/><path style="fill:#d23c69" d="M196.142 337.236c0 49.541 23.502 93.494 59.858 121.648 36.356-28.154 59.858-72.106 59.858-121.648 0-49.541-23.502-93.495-59.858-121.649-36.356 28.154-59.858 72.108-59.858 121.649z"/><circle style="fill:#82d7ff" cx="256" cy="174.764" r="153.921"/><path style="fill:#b4e66e" d="M197.602 317.143c18.016 7.398 37.715 11.542 58.398 11.542 78.181 0 142.595-58.338 152.461-133.828-18.016-7.399-37.715-11.542-58.398-11.542-78.181 0-142.595 58.338-152.461 133.828z"/><path style="fill:#5050ff" d="M103.539 194.857c9.866 75.49 74.28 133.828 152.461 133.828 20.683 0 40.382-4.143 58.398-11.542-9.866-75.49-74.28-133.828-152.461-133.828-20.683 0-40.381 4.143-58.398 11.542z"/><path style="fill:#464655" d="M197.611 317.083c18.012 7.414 37.691 11.602 58.389 11.602 20.683 0 40.382-4.143 58.398-11.542-5.389-41.232-27.124-77.256-58.413-101.545-31.323 24.263-52.971 60.273-58.374 101.485z"/><path d="M417.227 189.872c.463-4.976.711-10.013.711-15.108 0-89.293-72.644-161.937-161.937-161.937S94.063 85.471 94.063 174.764c0 5.046.237 10.118.702 15.138C38.905 215.471 0 271.892 0 337.236c0 89.293 72.644 161.937 161.937 161.937 34.146 0 66.566-10.411 94.119-30.153 26.522 18.973 58.982 30.153 94.006 30.153 89.293 0 161.937-72.644 161.937-161.937.001-63.613-37.089-121.055-94.772-147.364zm-307.131-15.108C110.096 94.313 175.549 28.86 256 28.86s145.904 65.453 145.904 145.904c0 57.213-33.106 106.829-81.162 130.727-7.053-35.337-25.64-66.557-51.658-89.564 23.184-15.527 51.041-24.595 80.978-24.595 7.827 0 15.682.624 23.346 1.857a8.016 8.016 0 0 0 2.545-15.829 163.48 163.48 0 0 0-25.891-2.061c-35.049 0-67.53 11.197-94.063 30.195-26.533-18.999-59.014-30.195-94.063-30.195-18.022 0-35.364 2.963-51.57 8.421-.178-2.982-.27-5.974-.27-8.956zM256 225.797c25.568 21.615 43.627 51.843 49.646 86.169-15.504 5.627-32.222 8.702-49.646 8.702-17.135 0-33.875-2.953-49.652-8.662 6.011-34.342 24.074-64.586 49.652-86.209zM161.937 483.14c-80.451 0-145.904-65.453-145.904-145.904s65.453-145.904 145.904-145.904c29.938 0 57.794 9.068 80.977 24.595-26.032 23.02-44.626 54.262-51.668 89.624a146.218 146.218 0 0 1-18.869-11.208c-24.038-16.844-42.263-40.173-52.704-67.47a8.016 8.016 0 0 0-10.351-4.624 8.015 8.015 0 0 0-4.624 10.351c11.588 30.296 31.809 56.185 58.478 74.873a161.998 161.998 0 0 0 25.657 14.674 163.332 163.332 0 0 0-.708 15.09c0 48.268 21.235 91.663 54.843 121.357-23.986 16.087-51.806 24.546-81.031 24.546zm188.126 0c-80.451 0-145.904-65.453-145.904-145.904 0-3 .102-5.977.281-8.934 16.467 5.526 33.821 8.399 51.56 8.399 18.018 0 35.357-2.962 51.558-8.418.181 2.962.283 5.945.283 8.952 0 33.535-11.657 66.282-32.824 92.207a8.017 8.017 0 1 0 12.419 10.141c23.497-28.78 36.438-65.128 36.438-102.348 0-5.103-.249-10.149-.713-15.133 46.59-21.322 81.38-64.107 91.65-115.631 49.544 24.539 81.155 75.021 81.155 130.764.001 80.452-65.452 145.905-145.903 145.905z"/></svg>